<svg width="30" height="30" viewBox="0 0 30 30" fill="none" xmlns="http://www.w3.org/2000/svg">
<g clip-path="url(#clip0_63_290)">
<path d="M28.75 23.75C28.75 24.413 28.4866 25.0489 28.0178 25.5178C27.5489 25.9866 26.913 26.25 26.25 26.25H3.75C3.08696 26.25 2.45107 25.9866 1.98223 25.5178C1.51339 25.0489 1.25 24.413 1.25 23.75V10C1.25 9.33696 1.51339 8.70107 1.98223 8.23223C2.45107 7.76339 3.08696 7.5 3.75 7.5H8.75L11.25 3.75H18.75L21.25 7.5H26.25C26.913 7.5 27.5489 7.76339 28.0178 8.23223C28.4866 8.70107 28.75 9.33696 28.75 10V23.75Z" stroke="#1E1E1E" stroke-width="4" stroke-linecap="round" stroke-linejoin="round"/>
<path d="M15 21.25C17.7614 21.25 20 19.0114 20 16.25C20 13.4886 17.7614 11.25 15 11.25C12.2386 11.25 10 13.4886 10 16.25C10 19.0114 12.2386 21.25 15 21.25Z" stroke="#1E1E1E" stroke-width="4" stroke-linecap="round" stroke-linejoin="round"/>
</g>
<defs>
<clipPath id="clip0_63_290">
<rect width="30" height="30" fill="white"/>
</clipPath>
</defs>
</svg>
