<svg width="40" height="40" viewBox="0 0 40 40" fill="none" xmlns="http://www.w3.org/2000/svg">
<path d="M28.333 4.99985C28.7707 4.56211 29.2904 4.21488 29.8624 3.97798C30.4343 3.74107 31.0473 3.61914 31.6663 3.61914C32.2854 3.61914 32.8984 3.74107 33.4703 3.97798C34.0423 4.21488 34.5619 4.56211 34.9997 4.99985C35.4374 5.43759 35.7847 5.95726 36.0216 6.5292C36.2585 7.10113 36.3804 7.71413 36.3804 8.33319C36.3804 8.95224 36.2585 9.56524 36.0216 10.1372C35.7847 10.7091 35.4374 11.2288 34.9997 11.6665L12.4997 34.1665L3.33301 36.6665L5.83301 27.4999L28.333 4.99985Z" stroke="#1E1E1E" stroke-width="4" stroke-linecap="round" stroke-linejoin="round"/>
</svg>
