<svg width="50" height="50" viewBox="0 0 50 50" fill="none" xmlns="http://www.w3.org/2000/svg">
<path d="M19.2708 45.8334L18.4375 39.1667C17.9861 38.9931 17.5608 38.7847 17.1615 38.5417C16.7622 38.2986 16.3715 38.0382 15.9896 37.7604L9.79167 40.3646L4.0625 30.4688L9.42708 26.4063C9.39236 26.1632 9.375 25.9288 9.375 25.7031V24.2969C9.375 24.0712 9.39236 23.8368 9.42708 23.5938L4.0625 19.5313L9.79167 9.63544L15.9896 12.2396C16.3715 11.9618 16.7708 11.7014 17.1875 11.4584C17.6042 11.2153 18.0208 11.007 18.4375 10.8334L19.2708 4.16669H30.7292L31.5625 10.8334C32.0139 11.007 32.4392 11.2153 32.8385 11.4584C33.2378 11.7014 33.6285 11.9618 34.0104 12.2396L40.2083 9.63544L45.9375 19.5313L40.5729 23.5938C40.6076 23.8368 40.625 24.0712 40.625 24.2969V25.7031C40.625 25.9288 40.5903 26.1632 40.5208 26.4063L45.8854 30.4688L40.1562 40.3646L34.0104 37.7604C33.6285 38.0382 33.2292 38.2986 32.8125 38.5417C32.3958 38.7847 31.9792 38.9931 31.5625 39.1667L30.7292 45.8334H19.2708ZM22.9167 41.6667H27.0312L27.7604 36.1459C28.8368 35.8681 29.8351 35.4601 30.7552 34.9219C31.6753 34.3837 32.5174 33.7327 33.2812 32.9688L38.4375 35.1042L40.4688 31.5625L35.9896 28.1771C36.1632 27.691 36.2847 27.1788 36.3542 26.6406C36.4236 26.1025 36.4583 25.5556 36.4583 25C36.4583 24.4445 36.4236 23.8976 36.3542 23.3594C36.2847 22.8212 36.1632 22.309 35.9896 21.8229L40.4688 18.4375L38.4375 14.8959L33.2812 17.0834C32.5174 16.2847 31.6753 15.6163 30.7552 15.0781C29.8351 14.54 28.8368 14.132 27.7604 13.8542L27.0833 8.33335H22.9687L22.2396 13.8542C21.1632 14.132 20.1649 14.54 19.2448 15.0781C18.3247 15.6163 17.4826 16.2674 16.7188 17.0313L11.5625 14.8959L9.53125 18.4375L14.0104 21.7709C13.8368 22.2917 13.7153 22.8125 13.6458 23.3334C13.5764 23.8542 13.5417 24.4097 13.5417 25C13.5417 25.5556 13.5764 26.0938 13.6458 26.6146C13.7153 27.1354 13.8368 27.6563 14.0104 28.1771L9.53125 31.5625L11.5625 35.1042L16.7188 32.9167C17.4826 33.7153 18.3247 34.3837 19.2448 34.9219C20.1649 35.4601 21.1632 35.8681 22.2396 36.1459L22.9167 41.6667ZM25.1042 32.2917C27.1181 32.2917 28.8368 31.5799 30.2604 30.1563C31.684 28.7327 32.3958 27.0139 32.3958 25C32.3958 22.9861 31.684 21.2674 30.2604 19.8438C28.8368 18.4202 27.1181 17.7084 25.1042 17.7084C23.0556 17.7084 21.3281 18.4202 19.9219 19.8438C18.5156 21.2674 17.8125 22.9861 17.8125 25C17.8125 27.0139 18.5156 28.7327 19.9219 30.1563C21.3281 31.5799 23.0556 32.2917 25.1042 32.2917Z" fill="white"/>
</svg>
